<?xml version="1.0" encoding="utf-8"?>
<!-- Generator: Adobe Illustrator 27.3.1, SVG Export Plug-In . SVG Version: 6.00 Build 0)  -->
<svg version="1.1" id="darkmode" xmlns="http://www.w3.org/2000/svg" xmlns:xlink="http://www.w3.org/1999/xlink" x="0px" y="0px"
	 viewBox="0 0 369 171.7" style="enable-background:new 0 0 369 171.7;" xml:space="preserve">
<style type="text/css">
	.st0{fill:#A2B5BF;}
	.st1{fill:#CAD9DD;}
	.st2{opacity:0.12;fill:#231F20;enable-background:new    ;}
	.st3{fill:#F4E962;}
	.st4{fill:#F9C941;}
</style>
<g>
	<polygon id="star-1" class="st0" points="166.3,133 164.4,135.7 161,136.5 163.2,139 163,142.2 166.3,141 169.5,142.2 169.3,139 
		171.5,136.5 168.1,135.7 	"/>
	<polygon id="star-2" class="st0" points="175.5,44.2 172.7,48.3 167.6,49.5 170.9,53.2 170.6,58 175.5,56.3 180.4,58 180.1,53.2 
		183.4,49.5 178.4,48.3 	"/>
	<polygon id="star-3" class="st0" points="208.2,91.8 206.1,94.9 202.3,95.8 204.8,98.6 204.5,102.2 208.2,100.9 211.9,102.2 
		211.7,98.6 214.2,95.8 210.4,94.9 	"/>
	<polygon id="star-4" class="st0" points="252.5,39.1 250.4,42.1 246.6,43 249.1,45.8 248.9,49.4 252.5,48.1 256.2,49.4 256,45.8 
		258.5,43 254.7,42.1 	"/>
	<polygon id="star-5" class="st0" points="280.2,84.9 282.7,89 287.4,90.2 284.4,93.9 284.6,98.7 280.2,97 275.7,98.7 275.9,93.9 
		272.9,90.2 277.6,89 	"/>
	<polygon id="star-6" class="st0" points="249.8,124.5 246.7,128.9 241.1,130.3 244.7,134.4 244.4,139.6 249.8,137.7 255.2,139.6 
		254.8,134.4 258.5,130.3 252.9,128.9 	"/>
	<g id="moon">
		<g>
			<g>
				<path class="st1" d="M255.7,153.6c-18.1,0-35.1-7.1-48-19.9c-12.8-12.8-19.9-29.8-19.9-48s7.1-35.1,19.9-48
					c12.8-12.8,29.8-19.9,48-19.9s35.1,7.1,48,19.9c12.8,12.8,19.9,29.8,19.9,48s-7.1,35.1-19.9,48
					C290.8,146.6,273.8,153.6,255.7,153.6z"/>
				<path class="st0" d="M255.7,21.7c35.4,0,62.7,28.7,62.7,64.2S291.1,148,255.7,148s-64.2-26.7-64.2-62.2
					C191.5,50.4,220.2,21.7,255.7,21.7 M255.7,14.4c-9.6,0-19,1.9-27.8,5.6c-8.5,3.6-16.2,8.8-22.7,15.3
					c-6.6,6.6-11.7,14.2-15.3,22.7c-3.7,8.8-5.6,18.2-5.6,27.8s1.9,19,5.6,27.8c3.6,8.5,8.8,16.2,15.3,22.7
					c6.6,6.6,14.2,11.7,22.7,15.3c8.8,3.7,18.2,5.6,27.8,5.6s19-1.9,27.8-5.6c8.5-3.6,16.2-8.8,22.7-15.3
					c6.6-6.6,11.7-14.2,15.3-22.7c3.7-8.8,5.6-18.2,5.6-27.8s-1.9-19-5.6-27.8c-3.6-8.5-8.8-16.2-15.3-22.7
					c-6.6-6.6-14.2-11.7-22.7-15.3C274.7,16.2,265.3,14.4,255.7,14.4L255.7,14.4z"/>
			</g>
		</g>
		<path class="st0" d="M295.3,35.3c8.8,11,14,24.9,14,40c0,35.4-28.7,64.2-64.2,64.2c-14.9,0-28.7-5.1-39.6-13.7
			c11.8,14.7,29.8,24.1,50.1,24.1c35.4,0,64.2-28.7,64.2-64.2C319.8,65.3,310.2,47.1,295.3,35.3z"/>
		<circle class="st1" cx="304.3" cy="98.7" r="5.4"/>
		<path class="st1" d="M278.4,126.1c0-8.8-7.1-15.9-15.9-15.9s-15.9,7.1-15.9,15.9c0,8.8,7.1,15.9,15.9,15.9
			C271.2,142,278.4,134.9,278.4,126.1z"/>
		<circle class="st1" cx="242.4" cy="138.5" r="3.6"/>
		<circle class="st1" cx="306.5" cy="57.7" r="3.5"/>
		<g>
			<circle class="st0" cx="262.4" cy="126.1" r="14.3"/>
			<path class="st2" d="M249.8,128c0-7.9,6.4-14.3,14.3-14.3c3.8,0,7.3,1.5,9.9,3.9c-2.6-3.5-6.8-5.8-11.5-5.8
				c-7.9,0-14.3,6.4-14.3,14.3c0,4.1,1.7,7.8,4.5,10.4C250.8,134.1,249.8,131.2,249.8,128z"/>
		</g>
		<g>
			<circle class="st0" cx="239.6" cy="65.1" r="9.9"/>
			<path class="st2" d="M230.9,66.4c0-5.5,4.4-9.9,9.9-9.9c2.6,0,5,1,6.8,2.7c-1.8-2.4-4.7-4-8-4c-5.5,0-9.9,4.4-9.9,9.9
				c0,2.8,1.2,5.4,3.1,7.2C231.6,70.6,230.9,68.6,230.9,66.4z"/>
		</g>
		<g>
			<circle class="st0" cx="292.4" cy="64.7" r="7.3"/>
			<path class="st2" d="M285.9,65.7c0-4.1,3.3-7.3,7.3-7.3c2,0,3.7,0.8,5,2c-1.3-1.8-3.5-3-5.9-3c-4.1,0-7.3,3.3-7.3,7.3
				c0,2.1,0.9,4,2.3,5.3C286.5,68.8,285.9,67.3,285.9,65.7z"/>
		</g>
		<g>
			<circle class="st0" cx="285.8" cy="108.1" r="3.5"/>
			<path class="st2" d="M282.7,108.6c0-1.9,1.6-3.5,3.5-3.5c0.9,0,1.8,0.4,2.4,1c-0.6-0.9-1.7-1.4-2.8-1.4c-1.9,0-3.5,1.6-3.5,3.5
				c0,1,0.4,1.9,1.1,2.5C283,110.1,282.7,109.3,282.7,108.6z"/>
		</g>
		<g>
			<circle class="st0" cx="222.6" cy="77.9" r="4.4"/>
			<path class="st2" d="M218.7,78.5c0-2.5,2-4.4,4.4-4.4c1.2,0,2.3,0.5,3.1,1.2c-0.8-1.1-2.1-1.8-3.6-1.8c-2.5,0-4.4,2-4.4,4.4
				c0,1.3,0.5,2.4,1.4,3.2C219,80.4,218.7,79.5,218.7,78.5z"/>
		</g>
		<g>
			<circle class="st0" cx="304.3" cy="98.7" r="4.4"/>
			<path class="st2" d="M300.4,99.3c0-2.5,2-4.4,4.4-4.4c1.2,0,2.3,0.5,3.1,1.2c-0.8-1.1-2.1-1.8-3.6-1.8c-2.5,0-4.4,2-4.4,4.4
				c0,1.3,0.5,2.4,1.4,3.2C300.7,101.2,300.4,100.3,300.4,99.3z"/>
		</g>
		<g>
			<circle class="st0" cx="242.4" cy="138.5" r="2.8"/>
			<path class="st2" d="M239.9,138.9c0-1.5,1.2-2.8,2.8-2.8c0.7,0,1.4,0.3,1.9,0.8c-0.5-0.7-1.3-1.1-2.2-1.1c-1.5,0-2.8,1.2-2.8,2.8
				c0,0.8,0.3,1.5,0.9,2C240.1,140.1,239.9,139.5,239.9,138.9z"/>
		</g>
		<g>
			<circle class="st0" cx="238.7" cy="40.1" r="2.8"/>
			<path class="st2" d="M236.2,40.4c0-1.5,1.2-2.8,2.8-2.8c0.7,0,1.4,0.3,1.9,0.8c-0.5-0.7-1.3-1.1-2.2-1.1c-1.5,0-2.8,1.2-2.8,2.8
				c0,0.8,0.3,1.5,0.9,2C236.4,41.6,236.2,41,236.2,40.4z"/>
		</g>
		<g>
			<circle class="st0" cx="252.9" cy="44.1" r="5.3"/>
			<path class="st2" d="M248.2,44.8c0-2.9,2.4-5.3,5.3-5.3c1.4,0,2.7,0.6,3.7,1.5c-1-1.3-2.5-2.2-4.3-2.2c-2.9,0-5.3,2.4-5.3,5.3
				c0,1.5,0.6,2.9,1.7,3.9C248.6,47.1,248.2,46,248.2,44.8z"/>
		</g>
		<g>
			<circle class="st0" cx="258.3" cy="81.2" r="4.2"/>
			<path class="st2" d="M254.5,81.7c0-2.3,1.9-4.2,4.2-4.2c1.1,0,2.1,0.4,2.9,1.2c-0.8-1-2-1.7-3.4-1.7c-2.3,0-4.2,1.9-4.2,4.2
				c0,1.2,0.5,2.3,1.3,3C254.9,83.5,254.5,82.7,254.5,81.7z"/>
		</g>
		<g>
			<circle class="st0" cx="306.5" cy="57.7" r="2.8"/>
			<path class="st2" d="M304.1,58.1c0-1.5,1.2-2.8,2.8-2.8c0.7,0,1.4,0.3,1.9,0.8c-0.5-0.7-1.3-1.1-2.2-1.1c-1.5,0-2.8,1.2-2.8,2.8
				c0,0.8,0.3,1.5,0.9,2C304.3,59.3,304.1,58.7,304.1,58.1z"/>
		</g>
		<g>
			<circle class="st0" cx="207.4" cy="62.2" r="2.8"/>
			<path class="st2" d="M205,62.6c0-1.5,1.2-2.8,2.8-2.8c0.7,0,1.4,0.3,1.9,0.8c-0.5-0.7-1.3-1.1-2.2-1.1c-1.5,0-2.8,1.2-2.8,2.8
				c0,0.8,0.3,1.5,0.9,2C205.2,63.7,205,63.2,205,62.6z"/>
		</g>
		<g>
			<circle class="st0" cx="214.3" cy="103.6" r="2.8"/>
			<path class="st2" d="M211.8,104c0-1.5,1.2-2.8,2.8-2.8c0.7,0,1.4,0.3,1.9,0.8c-0.5-0.7-1.3-1.1-2.2-1.1c-1.5,0-2.8,1.2-2.8,2.8
				c0,0.8,0.3,1.5,0.9,2C212,105.1,211.8,104.6,211.8,104z"/>
		</g>
	</g>
</g>
<g>
	<g id="sun">
		<g>
			<g>
				<path class="st3" d="M255.7,153.6c-18.1,0-35.1-7.1-48-19.9c-12.8-12.8-19.9-29.8-19.9-48s7.1-35.1,19.9-48
					c12.8-12.8,29.8-19.9,48-19.9c18.1,0,35.1,7.1,48,19.9s19.9,29.8,19.9,48s-7.1,35.1-19.9,48
					C290.8,146.6,273.8,153.6,255.7,153.6z"/>
				<path class="st4" d="M255.7,21.7c35.4,0,64.2,28.7,64.2,64.2S291.1,150,255.7,150s-64.2-28.7-64.2-64.2S220.2,21.7,255.7,21.7
					 M255.7,14.4c-9.6,0-19,1.9-27.8,5.6c-8.5,3.6-16.2,8.8-22.7,15.3c-6.6,6.6-11.7,14.2-15.3,22.7c-3.7,8.8-5.6,18.2-5.6,27.8
					s1.9,19,5.6,27.8c3.6,8.5,8.8,16.2,15.3,22.7c6.6,6.6,14.2,11.7,22.7,15.3c8.8,3.7,18.2,5.6,27.8,5.6s19-1.9,27.8-5.6
					c8.5-3.6,16.2-8.8,22.7-15.3c6.6-6.6,11.7-14.2,15.3-22.7c3.7-8.8,5.6-18.2,5.6-27.8s-1.9-19-5.6-27.8
					c-3.6-8.5-8.8-16.2-15.3-22.7c-6.6-6.6-14.2-11.7-22.7-15.3C274.7,16.2,265.3,14.4,255.7,14.4L255.7,14.4z"/>
			</g>
		</g>
	</g>
</g>
</svg>
