<?xml version="1.0" encoding="utf-8"?>
<!-- Generator: Adobe Illustrator 27.3.1, SVG Export Plug-In . SVG Version: 6.00 Build 0)  -->
<svg version="1.1" id="Objects" xmlns="http://www.w3.org/2000/svg" xmlns:xlink="http://www.w3.org/1999/xlink" x="0px" y="0px"
	 viewBox="0 0 447.4 179.3" style="enable-background:new 0 0 447.4 179.3;" xml:space="preserve">
<style type="text/css">
	.st0{fill:#002944;}
	.st1{fill:#C7F9F2;}
	.st2{fill:#59BCC1;}
	.st3{fill:#6BCEC4;}
	.st4{fill:#2CC47F;}
	.st5{fill:#1FA364;}
	.st6{fill:#FAFFFE;}
	.st7{fill:#B9C6C4;}
	.st8{fill:#4FADB2;}
	.st9{opacity:0.2;}
	.st10{fill:#FFFFFF;}
	.st11{fill:#5AE2B5;}
	.st12{fill:#75EAC0;}
	.st13{fill:#389E77;}
</style>
<rect x="522.3" y="-420.9" class="st0" width="580" height="334.7"/>
<g>
	<path class="st1" d="M336.2,115.3h-27.5c0-11.2-9.1-20.3-20.3-20.3h-87.4c-5.8,0-11,2.4-14.7,6.3c-3.7-3.9-8.9-6.3-14.7-6.3h-7.9
		c0-0.1,0-0.1,0-0.2c0-7.5-6.1-13.5-13.5-13.5h-41.4c-7.5,0-13.5,6-13.5,13.5c0,0.1,0,0.1,0,0.2H81.1c-11.2,0-20.3,9.1-20.3,20.3
		H37.1c-8.1,0-15.2,4.8-18.4,11.7h335.8C351.3,120.1,344.3,115.3,336.2,115.3L336.2,115.3z"/>
	<rect x="361.7" y="97.9" class="st2" width="17.7" height="3.3"/>
	<rect x="305.7" y="97.9" class="st2" width="17.7" height="3.3"/>
	<path class="st3" d="M126.1,96.5c-0.1-0.2-0.2-0.3-0.4-0.3h-23.4c-0.4,0-0.8,0.2-0.9,0.6l0,0.1c-0.3,0.1-0.7,0.3-0.8,0.6l-1.3,3.2
		c-0.1,0.3,0,0.5,0.3,0.6l-0.6,1.4c-0.3,0.1-0.7,0.3-0.8,0.6l-1,2.5l0,0l-0.3,0.7c-0.1,0.3,0,0.5,0.3,0.6l-0.6,1.3
		c-0.3,0.1-0.7,0.3-0.8,0.6l-1.3,3.2c-0.1,0.3,0,0.5,0.3,0.6c-0.1,0.3,0.1,0.5,0.4,0.5c0.1,0.2,0.2,0.2,0.4,0.2h13.3v2.3
		c-0.4,0.3-0.7,0.9-0.7,1.4v5h3.8v-5c0-0.6-0.3-1.1-0.7-1.4v-1.2l0,0v-1.1h7.6c0.4,0,0.8-0.2,0.9-0.6l6.4-15.7
		C126.5,96.8,126.4,96.5,126.1,96.5L126.1,96.5z"/>
	<path class="st3" d="M253.9,96.5c-0.1-0.2-0.2-0.3-0.4-0.3h-23.4c-0.4,0-0.8,0.2-0.9,0.6l0,0.1c-0.3,0.1-0.7,0.3-0.8,0.6l-1.3,3.2
		c-0.1,0.3,0,0.5,0.3,0.6l-0.6,1.4c-0.3,0.1-0.7,0.3-0.8,0.6l-1,2.5l0,0l-0.3,0.7c-0.1,0.3,0,0.5,0.3,0.6l-0.6,1.3
		c-0.3,0.1-0.7,0.3-0.8,0.6l-1.3,3.2c-0.1,0.3,0,0.5,0.4,0.6c-0.1,0.3,0.1,0.5,0.4,0.5c0.1,0.2,0.2,0.2,0.4,0.2h13.3v2.3
		c-0.4,0.3-0.7,0.9-0.7,1.4v5h3.8v-5c0-0.6-0.3-1.1-0.7-1.4v-1.2l0,0v-1.1h7.6c0.4,0,0.8-0.2,0.9-0.6l6.4-15.7
		C254.3,96.8,254.2,96.5,253.9,96.5L253.9,96.5z"/>
	<path class="st3" d="M386.1,95.9c0-0.2-0.2-0.3-0.4-0.3h-23.4c-0.4,0-0.8,0.2-0.9,0.6l0,0.1c-0.3,0.1-0.7,0.3-0.8,0.6l-1.3,3.2
		c-0.1,0.3,0,0.5,0.3,0.6l-0.5,1.4c-0.3,0.1-0.7,0.3-0.8,0.6l-1,2.5l0,0l-0.3,0.7c-0.1,0.3,0,0.5,0.3,0.6l-0.5,1.3
		c-0.3,0.1-0.7,0.3-0.8,0.6l-1.3,3.2c-0.1,0.3,0,0.5,0.4,0.6c-0.1,0.3,0.1,0.5,0.4,0.5c0.1,0.2,0.2,0.2,0.4,0.2h13.3v2.3
		c-0.4,0.3-0.7,0.9-0.7,1.4v5h3.8v-5c0-0.6-0.3-1.1-0.7-1.4v-1.2l0,0v-1.1h7.6c0.4,0,0.8-0.2,0.9-0.6l6.4-15.7
		C386.6,96.2,386.4,95.9,386.1,95.9L386.1,95.9z"/>
	<path class="st4" d="M187.9,136.9H8.8c-4.8,0-8.8-3.9-8.8-8.8s3.9-8.8,8.8-8.8h179.1c4.8,0,8.8,3.9,8.8,8.8
		S192.7,136.9,187.9,136.9z"/>
	<path class="st4" d="M438.6,136.9H179.1c-4.8,0-8.8-3.9-8.8-8.8s3.9-8.8,8.8-8.8h259.5c4.8,0,8.8,3.9,8.8,8.8
		S443.4,136.9,438.6,136.9L438.6,136.9z"/>
	<path class="st5" d="M380.2,154.5H64.6c-4.8,0-8.8-3.9-8.8-8.8s3.9-8.8,8.8-8.8h315.6c4.8,0,8.8,3.9,8.8,8.8
		S385.1,154.5,380.2,154.5L380.2,154.5z"/>
	<path class="st5" d="M374.4,179.3H167.2c-3.2,0-5.8-2.6-5.8-5.8s2.6-5.8,5.8-5.8h207.2c3.2,0,5.8,2.6,5.8,5.8
		S377.6,179.3,374.4,179.3z"/>
	<path class="st4" d="M130.1,179.3h-24.5c-3.2,0-5.8-2.6-5.8-5.8s2.6-5.8,5.8-5.8h24.5c3.2,0,5.8,2.6,5.8,5.8
		S133.3,179.3,130.1,179.3z"/>
	<path class="st4" d="M313.9,154.5h-3.4c-3.3,0-6-2.7-6-5.9s2.7-5.9,6-5.9h3.4c3.3,0,6,2.7,6,5.9S317.2,154.5,313.9,154.5z"/>
	<path class="st5" d="M338.4,167.6H43.5c-3.6,0-6.6-2.9-6.6-6.6s2.9-6.6,6.6-6.6h294.9c-3.6,0-6.6,2.9-6.6,6.6
		S334.8,167.6,338.4,167.6z"/>
	<g>
		<path class="st6" d="M79.7,96.2v21.7c0,1-0.8,1.9-1.9,1.9s-1.9-0.8-1.9-1.9V96.2c0-1,0.8-1.9,1.9-1.9S79.7,95.1,79.7,96.2z"/>
		<rect x="75.9" y="107.4" class="st7" width="3.8" height="2.8"/>
		<path class="st6" d="M77.8,111.4c-1.6,0-2.9,1.3-2.9,2.9v7.7h5.9v-7.7C80.7,112.7,79.4,111.4,77.8,111.4z"/>
		<g>
			<path class="st7" d="M91.5,108.5H55.4c-0.5,0-0.8-0.4-0.7-0.9l9.9-24.2c0.2-0.5,0.8-0.9,1.4-0.9h36.1c0.6,0,0.8,0.4,0.7,0.9
				l-9.9,24.2C92.6,108.2,92,108.5,91.5,108.5z"/>
			<path class="st6" d="M90.9,108.2H54.8c-0.5,0-0.8-0.4-0.7-0.9L64,83.1c0.2-0.5,0.8-0.9,1.4-0.9h36.1c0.6,0,0.8,0.4,0.7,0.9
				l-9.9,24.2C92.1,107.8,91.5,108.2,90.9,108.2z"/>
			<path class="st8" d="M80.6,84.1l-2,4.9c-0.2,0.5-0.8,0.9-1.4,0.9H61.4c-0.6,0-0.9-0.4-0.7-0.9l2-4.9c0.2-0.5,0.8-0.9,1.4-0.9H80
				C80.5,83.2,80.8,83.6,80.6,84.1z"/>
			<path class="st8" d="M100.9,84.1l-2,4.9c-0.2,0.5-0.8,0.9-1.4,0.9H81.7c-0.6,0-0.9-0.4-0.7-0.9l2-4.9c0.2-0.5,0.8-0.9,1.4-0.9
				h15.8C100.8,83.2,101.1,83.6,100.9,84.1z"/>
			<path class="st8" d="M77.1,92.8l-2,4.9c-0.2,0.5-0.8,0.9-1.4,0.9H57.9c-0.6,0-0.9-0.4-0.7-0.9l2-4.9c0.2-0.5,0.8-0.9,1.4-0.9
				h15.8C77,91.9,77.3,92.3,77.1,92.8z"/>
			<path class="st8" d="M97.3,92.8l-2,4.9c-0.2,0.5-0.8,0.9-1.4,0.9H78.1c-0.6,0-0.9-0.4-0.7-0.9l2-4.9c0.2-0.5,0.8-0.9,1.4-0.9
				h15.8C97.2,91.9,97.5,92.3,97.3,92.8z"/>
			<path class="st8" d="M73.5,101.6l-2,4.9c-0.2,0.5-0.8,0.9-1.4,0.9H54.3c-0.6,0-0.9-0.4-0.7-0.9l2-4.9c0.2-0.5,0.8-0.9,1.4-0.9
				h15.8C73.4,100.7,73.7,101.1,73.5,101.6z"/>
			<path class="st8" d="M90.3,107.4H74.5c-0.6,0-0.9-0.4-0.7-0.9l2-4.9c0.2-0.5,0.8-0.9,1.4-0.9h15.8c0.6,0,0.9,0.4,0.7,0.9l-2,4.9
				C91.5,107,90.9,107.4,90.3,107.4z"/>
			<g class="st9">
				<path class="st6" d="M60.6,91.9H65l-7.4,4.7l1.6-3.8C59.4,92.3,60,91.9,60.6,91.9L60.6,91.9z"/>
			</g>
			<g class="st9">
				<path class="st6" d="M64.2,83.2h14.5l-10.5,6.7h-6.7c-0.6,0-0.9-0.4-0.7-0.9l2-4.9C63,83.6,63.6,83.2,64.2,83.2L64.2,83.2z"/>
			</g>
			<g class="st9">
				<path class="st6" d="M60.9,100.7h9.2l-10.5,6.7h-5.3c-0.6,0-0.9-0.4-0.7-0.9l0.7-1.6L60.9,100.7z"/>
			</g>
			<g class="st9">
				<path class="st6" d="M77.1,92.8l-1.9,4.6l-1.9,1.2H64l10.5-6.7h1.8C77,91.9,77.3,92.3,77.1,92.8L77.1,92.8z"/>
			</g>
			<g class="st9">
				<path class="st6" d="M80.8,91.9h2.9l-5.4,3.4l1-2.5C79.6,92.3,80.3,91.9,80.8,91.9L80.8,91.9z"/>
			</g>
			<g class="st9">
				<path class="st6" d="M88.2,83.2h9.2L87,89.9h-5.3c-0.6,0-0.9-0.4-0.7-0.9l0.7-1.6C81.7,87.4,88.3,83.2,88.2,83.2z"/>
			</g>
		</g>
	</g>
	<path class="st10" d="M197.1,47.7h-12.7c0-1.3-0.2-2.5-0.6-3.7l0,0h9.5c3.9,0,7.1-3.2,7.1-7.2s-3.2-7.1-7.1-7.1H135
		c-3.9,0-7.2,3.2-7.2,7.1c0,0,0,0.1,0,0.1H62c-5.9,0-10.7,4.8-10.7,10.8H38.6c-4.3,0-8,2.5-9.8,6.2h178
		C205.2,50.3,201.4,47.7,197.1,47.7L197.1,47.7z"/>
	<path class="st10" d="M317.7,19.6h-9c0-3.7-3-6.6-6.6-6.6h-28.7c-1.9,0-3.6,0.8-4.8,2.1c-1.2-1.3-2.9-2.1-4.8-2.1h-2.6
		c0,0,0,0,0-0.1c0-2.4-2-4.4-4.4-4.4h-13.6c-2.4,0-4.4,2-4.4,4.4c0,0,0,0,0,0.1h-4.6c-3.7,0-6.6,3-6.6,6.7h-7.8c-2.7,0-5,1.6-6,3.8
		h110.1C322.7,21.2,320.4,19.6,317.7,19.6L317.7,19.6z"/>
	<g>
		<path class="st6" d="M154.4,86.1v32c0,1.5-1.2,2.8-2.8,2.8s-2.8-1.2-2.8-2.8v-32c0-1.5,1.2-2.8,2.8-2.8S154.4,84.6,154.4,86.1z"/>
		<rect x="148.9" y="102.7" class="st7" width="5.6" height="4.2"/>
		<path class="st6" d="M151.7,108.6c-2.4,0-4.3,1.9-4.3,4.3v11.4h8.6v-11.4C156,110.5,154.1,108.6,151.7,108.6L151.7,108.6z"/>
		<g>
			<path class="st7" d="M171.8,104.3h-53.2c-0.8,0-1.2-0.6-0.9-1.3l14.6-35.7c0.3-0.7,1.2-1.3,2-1.3h53.2c0.8,0,1.2,0.6,0.9,1.3
				l-14.6,35.7C173.5,103.8,172.6,104.3,171.8,104.3z"/>
			<path class="st6" d="M170.9,103.8h-53.2c-0.8,0-1.2-0.6-0.9-1.3l14.6-35.7c0.3-0.7,1.2-1.3,2-1.3h53.2c0.8,0,1.2,0.6,0.9,1.3
				l-14.6,35.7C172.7,103.2,171.8,103.8,170.9,103.8z"/>
			<path class="st8" d="M155.8,68.3l-3,7.2c-0.3,0.7-1.2,1.3-2.1,1.3h-23.2c-0.8,0-1.3-0.6-1-1.3l3-7.2c0.3-0.7,1.2-1.3,2.1-1.3
				h23.2C155.7,67,156.1,67.6,155.8,68.3L155.8,68.3z"/>
			<path class="st8" d="M185.7,68.3l-3,7.2c-0.3,0.7-1.2,1.3-2.1,1.3h-23.2c-0.9,0-1.3-0.6-1-1.3l3-7.2c0.3-0.7,1.2-1.3,2.1-1.3
				h23.2C185.5,67,186,67.6,185.7,68.3z"/>
			<path class="st8" d="M150.6,81.2l-3,7.2c-0.3,0.7-1.2,1.3-2.1,1.3h-23.2c-0.8,0-1.3-0.6-1-1.3l3-7.2c0.3-0.7,1.2-1.3,2.1-1.3
				h23.2C150.4,79.9,150.9,80.5,150.6,81.2z"/>
			<path class="st8" d="M180.4,81.2l-3,7.2c-0.3,0.7-1.2,1.3-2.1,1.3h-23.2c-0.9,0-1.3-0.6-1-1.3l3-7.2c0.3-0.7,1.2-1.3,2.1-1.3
				h23.2C180.2,79.9,180.7,80.5,180.4,81.2z"/>
			<path class="st8" d="M145.3,94.1l-3,7.2c-0.3,0.7-1.2,1.3-2.1,1.3H117c-0.8,0-1.3-0.6-1-1.3l3-7.2c0.3-0.7,1.2-1.3,2.1-1.3h23.2
				C145.1,92.8,145.6,93.4,145.3,94.1z"/>
			<path class="st8" d="M170.1,102.7h-23.2c-0.9,0-1.3-0.6-1-1.3l3-7.2c0.3-0.7,1.2-1.3,2.1-1.3h23.2c0.9,0,1.3,0.6,1,1.3l-3,7.2
				C171.8,102.1,170.9,102.7,170.1,102.7z"/>
			<g class="st9">
				<path class="st6" d="M126.3,79.9h6.5L122,86.8l2.3-5.6C124.6,80.5,125.5,79.9,126.3,79.9z"/>
			</g>
			<g class="st9">
				<path class="st6" d="M131.6,67H153l-15.5,9.9h-9.9c-0.8,0-1.3-0.6-1-1.3l3-7.2C129.8,67.6,130.8,67,131.6,67z"/>
			</g>
			<g class="st9">
				<path class="st6" d="M126.7,92.8h13.6l-15.5,9.9H117c-0.8,0-1.3-0.6-1-1.3l1-2.4C117,99,126.7,92.8,126.7,92.8z"/>
			</g>
			<g class="st9">
				<path class="st6" d="M150.6,81.2l-2.8,6.8l-2.8,1.8h-13.6l15.5-9.9h2.7C150.4,79.9,150.9,80.5,150.6,81.2z"/>
			</g>
			<g class="st9">
				<path class="st6" d="M156.2,79.9h4.3l-7.9,5.1l1.5-3.7C154.4,80.5,155.3,79.9,156.2,79.9L156.2,79.9z"/>
			</g>
			<g class="st9">
				<path class="st6" d="M167.1,67h13.6l-15.5,9.9h-7.8c-0.9,0-1.3-0.6-1-1.3l1-2.4L167.1,67L167.1,67z"/>
			</g>
		</g>
	</g>
	<g>
		<path class="st3" d="M310.3,37c-0.3,0-0.5-0.1-0.7-0.3l-4.1-4.1c-0.4-0.4-0.4-1,0-1.4s1-0.4,1.4,0l4.1,4.1c0.4,0.4,0.4,1,0,1.4
			C310.8,36.9,310.6,37,310.3,37L310.3,37z"/>
		<path class="st3" d="M310.3,37c-0.3,0-0.5-0.1-0.7-0.3c-0.4-0.4-0.4-1,0-1.4l4.1-4.1c0.4-0.4,1-0.4,1.4,0s0.4,1,0,1.4l-4.1,4.1
			C310.8,36.9,310.6,37,310.3,37L310.3,37z"/>
	</g>
	<g>
		<path class="st3" d="M409.7,37.3c-0.1,0-0.3,0-0.4-0.1l-6.4-2.8c-0.5-0.2-0.7-0.8-0.5-1.3c0.2-0.5,0.8-0.7,1.3-0.5l6.4,2.8
			c0.5,0.2,0.7,0.8,0.5,1.3C410.4,37.1,410.1,37.3,409.7,37.3L409.7,37.3z"/>
		<path class="st3" d="M409.7,37.3c-0.4,0-0.8-0.2-0.9-0.6c-0.2-0.5,0-1.1,0.5-1.3l6.4-2.8c0.5-0.2,1.1,0,1.3,0.5
			c0.2,0.5,0,1.1-0.5,1.3l-6.4,2.8C409.9,37.3,409.8,37.4,409.7,37.3L409.7,37.3z"/>
	</g>
	<g>
		<path class="st3" d="M322.6,45.6c-0.3,0-0.6-0.1-0.8-0.4c-0.3-0.4-0.3-1.1,0.2-1.4l3.2-2.5c0.4-0.3,1.1-0.3,1.4,0.2
			c0.3,0.4,0.3,1.1-0.2,1.4l-3.2,2.5C323,45.5,322.8,45.6,322.6,45.6L322.6,45.6z"/>
		<path class="st3" d="M329.1,45.6c-0.2,0-0.4-0.1-0.6-0.2l-3.2-2.5c-0.4-0.3-0.5-1-0.2-1.4s1-0.5,1.4-0.2l3.2,2.5
			c0.4,0.3,0.5,1,0.2,1.4C329.7,45.5,329.4,45.6,329.1,45.6L329.1,45.6z"/>
	</g>
	<g>
		<path class="st11" d="M22.1,111.7V91.3c0-3.7,3-6.8,6.8-6.8s6.8,3,6.8,6.8v20.4c0,3.7-3,6.8-6.8,6.8S22.1,115.5,22.1,111.7z"/>
		<path class="st12" d="M23.7,91.1v-1.5c0-1.8,1.4-3.2,3.2-3.2s3.2,1.4,3.2,3.2v1.5c0,1.8-1.4,3.2-3.2,3.2S23.7,92.9,23.7,91.1z"/>
		<path class="st12" d="M23.7,104.6v-6.3c0-1.8,1.4-3.2,3.2-3.2s3.2,1.4,3.2,3.2v6.3c0,1.8-1.4,3.2-3.2,3.2S23.7,106.4,23.7,104.6z"
			/>
		<path class="st13" d="M31.5,113.4c-0.2-0.2-0.5-0.2-0.7,0l-1.2,1.2v-5c0-0.3-0.2-0.5-0.5-0.5s-0.5,0.2-0.5,0.5v2.9l-1.4-1.4
			c-0.2-0.2-0.5-0.2-0.7,0c-0.2,0.2-0.2,0.5,0,0.7l2.1,2.1v9.6c0,0.3,0.2,0.5,0.5,0.5s0.5-0.2,0.5-0.5v-7.5l2-2
			C31.7,113.9,31.7,113.6,31.5,113.4z"/>
	</g>
	<g>
		<path class="st11" d="M410.9,116.9V105c0-2.2,1.8-3.9,4-3.9s4,1.8,4,3.9v11.9c0,2.2-1.8,3.9-4,3.9S410.9,119.1,410.9,116.9z"/>
		<path class="st12" d="M411.8,104.9V104c0-1,0.8-1.8,1.9-1.8s1.9,0.8,1.9,1.8v0.9c0,1-0.8,1.8-1.9,1.8S411.8,105.9,411.8,104.9z"/>
		<path class="st12" d="M411.8,112.8v-3.7c0-1,0.8-1.8,1.9-1.8s1.9,0.8,1.9,1.8v3.7c0,1-0.8,1.8-1.9,1.8S411.8,113.8,411.8,112.8z"
			/>
		<path class="st13" d="M414.9,115.4c-0.2,0-0.3,0.1-0.3,0.3v1.7l-0.8-0.8c-0.1-0.1-0.3-0.1-0.4,0s-0.1,0.3,0,0.4l1.2,1.2v5.6
			c0,0.2,0.1,0.3,0.3,0.3s0.3-0.1,0.3-0.3v-8.1C415.2,115.5,415.1,115.4,414.9,115.4L414.9,115.4z"/>
	</g>
	<g>
		<path class="st11" d="M422.1,112.9v-9.7c0-2.8,2.2-5,5-5s5,2.2,5,5v9.7c0,2.8-2.2,5-5,5S422.1,115.7,422.1,112.9z"/>
		<path class="st12" d="M423.2,107.7v-4.6c0-1.3,1-2.3,2.3-2.3s2.3,1.1,2.3,2.3v4.6c0,1.3-1,2.3-2.3,2.3S423.2,109,423.2,107.7z"/>
		<path class="st13" d="M429,114.1c-0.1-0.2-0.4-0.2-0.5,0l-0.9,0.9v-3.7c0-0.2-0.2-0.4-0.4-0.4s-0.4,0.2-0.4,0.4v2.1l-1-1
			c-0.1-0.2-0.4-0.2-0.5,0c-0.1,0.2-0.1,0.4,0,0.6l1.5,1.6v7.1c0,0.2,0.2,0.4,0.4,0.4s0.4-0.2,0.4-0.4v-5.5l1.5-1.5
			C429.1,114.5,429.1,114.3,429,114.1L429,114.1z"/>
	</g>
</g>
<g>
	<path class="st6" d="M206.6,97.2v21.7c0,1-0.8,1.9-1.9,1.9s-1.9-0.8-1.9-1.9V97.2c0-1,0.8-1.9,1.9-1.9S206.6,96.2,206.6,97.2z"/>
	<rect x="202.9" y="108.4" class="st7" width="3.8" height="2.8"/>
	<path class="st6" d="M204.7,112.4c-1.6,0-2.9,1.3-2.9,2.9v7.7h5.9v-7.7C207.7,113.8,206.4,112.4,204.7,112.4L204.7,112.4z"/>
	<g>
		<path class="st7" d="M218.4,109.6h-36.1c-0.6,0-0.8-0.4-0.6-0.9l9.9-24.2c0.2-0.5,0.8-0.9,1.4-0.9H229c0.6,0,0.8,0.4,0.6,0.9
			l-9.9,24.2C219.6,109.2,219,109.6,218.4,109.6z"/>
		<path class="st6" d="M217.8,109.2h-36.1c-0.6,0-0.8-0.4-0.6-0.9l9.9-24.2c0.2-0.5,0.8-0.9,1.4-0.9h36.1c0.6,0,0.8,0.4,0.6,0.9
			l-9.9,24.2C219,108.8,218.4,109.2,217.8,109.2z"/>
		<path class="st8" d="M207.6,85.1l-2,4.9c-0.2,0.5-0.8,0.9-1.4,0.9h-15.8c-0.6,0-0.9-0.4-0.7-0.9l2-4.9c0.2-0.5,0.8-0.9,1.4-0.9
			h15.8C207.5,84.2,207.8,84.6,207.6,85.1z"/>
		<path class="st8" d="M227.8,85.1l-2,4.9c-0.2,0.5-0.8,0.9-1.4,0.9h-15.8c-0.6,0-0.9-0.4-0.7-0.9l2-4.9c0.2-0.5,0.8-0.9,1.4-0.9
			h15.8C227.7,84.2,228,84.6,227.8,85.1z"/>
		<path class="st8" d="M204,93.9l-2,4.9c-0.2,0.5-0.8,0.9-1.4,0.9h-15.8c-0.6,0-0.9-0.4-0.7-0.9l2-4.9c0.2-0.5,0.8-0.9,1.4-0.9h15.8
			C203.9,93,204.2,93.4,204,93.9z"/>
		<path class="st8" d="M224.2,93.9l-2,4.9c-0.2,0.5-0.8,0.9-1.4,0.9H205c-0.6,0-0.9-0.4-0.7-0.9l2-4.9c0.2-0.5,0.8-0.9,1.4-0.9h15.8
			C224.1,93,224.4,93.4,224.2,93.9z"/>
		<path class="st8" d="M200.4,102.6l-2,4.9c-0.2,0.5-0.8,0.9-1.4,0.9h-15.8c-0.6,0-0.9-0.4-0.7-0.9l2-4.9c0.2-0.5,0.8-0.9,1.4-0.9
			h15.8C200.3,101.7,200.6,102.1,200.4,102.6z"/>
		<path class="st8" d="M217.2,108.4h-15.8c-0.6,0-0.9-0.4-0.7-0.9l2-4.9c0.2-0.5,0.8-0.9,1.4-0.9H220c0.6,0,0.9,0.4,0.7,0.9l-2,4.9
			C218.5,108,217.8,108.4,217.2,108.4z"/>
		<g class="st9">
			<path class="st6" d="M187.6,93h4.4l-7.4,4.7l1.6-3.8C186.3,93.4,187,93,187.6,93L187.6,93z"/>
		</g>
		<g class="st9">
			<path class="st6" d="M191.1,84.2h14.5l-10.5,6.7h-6.7c-0.6,0-0.9-0.4-0.7-0.9l2-4.9C189.9,84.6,190.6,84.2,191.1,84.2L191.1,84.2
				z"/>
		</g>
		<g class="st9">
			<path class="st6" d="M187.8,101.7h9.2l-10.5,6.7h-5.3c-0.6,0-0.9-0.4-0.7-0.9l0.7-1.6L187.8,101.7L187.8,101.7z"/>
		</g>
		<g class="st9">
			<path class="st6" d="M204,93.9l-1.9,4.6l-1.9,1.2H191l10.5-6.7h1.8C203.9,93,204.2,93.4,204,93.9L204,93.9z"/>
		</g>
		<g class="st9">
			<path class="st6" d="M207.8,93h2.9l-5.4,3.4l1-2.5C206.6,93.4,207.2,93,207.8,93L207.8,93z"/>
		</g>
		<g class="st9">
			<path class="st6" d="M215.2,84.2h9.2l-10.5,6.7h-5.3c-0.6,0-0.9-0.4-0.7-0.9l0.7-1.6L215.2,84.2L215.2,84.2z"/>
		</g>
	</g>
</g>
<g>
	<path class="st6" d="M282.2,86.1v32c0,1.5-1.2,2.8-2.8,2.8s-2.8-1.2-2.8-2.8v-32c0-1.5,1.2-2.8,2.8-2.8S282.2,84.6,282.2,86.1z"/>
	<rect x="276.6" y="102.7" class="st7" width="5.5" height="4.2"/>
	<path class="st6" d="M279.4,108.6c-2.4,0-4.3,1.9-4.3,4.3v11.4h8.6v-11.4C283.7,110.5,281.8,108.6,279.4,108.6z"/>
	<g>
		<path class="st7" d="M299.5,104.3h-53.2c-0.8,0-1.2-0.6-0.9-1.3L260,67.4c0.3-0.7,1.2-1.3,2-1.3h53.2c0.8,0,1.2,0.6,1,1.3
			l-14.6,35.7C301.3,103.8,300.4,104.3,299.5,104.3L299.5,104.3z"/>
		<path class="st6" d="M298.7,103.8h-53.2c-0.8,0-1.2-0.6-0.9-1.3l14.6-35.7c0.3-0.7,1.2-1.3,2-1.3h53.2c0.8,0,1.2,0.6,1,1.3
			l-14.6,35.7C300.4,103.2,299.5,103.8,298.7,103.8L298.7,103.8z"/>
		<path class="st8" d="M283.6,68.3l-3,7.2c-0.3,0.7-1.2,1.3-2.1,1.3h-23.2c-0.8,0-1.3-0.6-1-1.3l3-7.2c0.3-0.7,1.2-1.3,2.1-1.3h23.2
			C283.5,67,283.9,67.6,283.6,68.3L283.6,68.3z"/>
		<path class="st8" d="M313.4,68.3l-3,7.2c-0.3,0.7-1.2,1.3-2.1,1.3h-23.2c-0.9,0-1.3-0.6-1-1.3l3-7.2c0.3-0.7,1.2-1.3,2.1-1.3h23.2
			C313.3,67,313.7,67.6,313.4,68.3z"/>
		<path class="st8" d="M278.3,81.2l-3,7.2c-0.3,0.7-1.2,1.3-2.1,1.3H250c-0.8,0-1.3-0.6-1-1.3l3-7.2c0.3-0.7,1.2-1.3,2.1-1.3h23.2
			C278.2,79.9,278.6,80.5,278.3,81.2L278.3,81.2z"/>
		<path class="st8" d="M308.1,81.2l-3,7.2c-0.3,0.7-1.2,1.3-2.1,1.3h-23.2c-0.9,0-1.3-0.6-1-1.3l3-7.2c0.3-0.7,1.2-1.3,2.1-1.3h23.2
			C308,79.9,308.5,80.5,308.1,81.2z"/>
		<path class="st8" d="M273,94.1l-3,7.2c-0.3,0.7-1.2,1.3-2.1,1.3h-23.2c-0.8,0-1.3-0.6-1-1.3l3-7.2c0.3-0.7,1.2-1.3,2.1-1.3h23.2
			C272.9,92.8,273.3,93.4,273,94.1L273,94.1z"/>
		<path class="st8" d="M297.8,102.7h-23.2c-0.9,0-1.3-0.6-1-1.3l3-7.2c0.3-0.7,1.2-1.3,2.1-1.3h23.2c0.9,0,1.3,0.6,1,1.3l-3,7.2
			C299.6,102.1,298.7,102.7,297.8,102.7z"/>
		<g class="st9">
			<path class="st6" d="M254.1,79.9h6.5l-10.8,6.9l2.3-5.6C252.3,80.5,253.2,79.9,254.1,79.9L254.1,79.9z"/>
		</g>
		<g class="st9">
			<path class="st6" d="M259.4,67h21.4l-15.5,9.9h-9.9c-0.8,0-1.3-0.6-1-1.3l3-7.2C257.6,67.6,258.5,67,259.4,67z"/>
		</g>
		<g class="st9">
			<path class="st6" d="M254.5,92.8H268l-15.5,9.9h-7.8c-0.8,0-1.3-0.6-1-1.3l1-2.4L254.5,92.8L254.5,92.8z"/>
		</g>
		<g class="st9">
			<path class="st6" d="M278.3,81.2l-2.8,6.8l-2.8,1.8h-13.6l15.5-9.9h2.7C278.2,79.9,278.6,80.5,278.3,81.2z"/>
		</g>
		<g class="st9">
			<path class="st6" d="M283.9,79.9h4.3l-7.9,5.1l1.5-3.7C282.1,80.5,283.1,79.9,283.9,79.9L283.9,79.9z"/>
		</g>
		<g class="st9">
			<path class="st6" d="M294.8,67h13.6l-15.5,9.9h-7.8c-0.9,0-1.3-0.6-1-1.3l1-2.4L294.8,67L294.8,67z"/>
		</g>
	</g>
</g>
<g>
	<path class="st6" d="M338,96.2v21.7c0,1-0.8,1.9-1.9,1.9s-1.9-0.8-1.9-1.9V96.2c0-1,0.8-1.9,1.9-1.9S338,95.1,338,96.2z"/>
	<rect x="334.2" y="107.4" class="st7" width="3.8" height="2.8"/>
	<path class="st6" d="M336.1,111.4c-1.6,0-2.9,1.3-2.9,2.9v7.7h5.9v-7.7C339,112.7,337.7,111.4,336.1,111.4z"/>
	<g>
		<path class="st7" d="M349.8,108.5h-36.1c-0.5,0-0.8-0.4-0.6-0.9l9.9-24.2c0.2-0.5,0.8-0.9,1.4-0.9h36.1c0.5,0,0.8,0.4,0.6,0.9
			l-9.9,24.2C350.9,108.2,350.3,108.5,349.8,108.5z"/>
		<path class="st6" d="M349.2,108.2h-36.1c-0.5,0-0.8-0.4-0.6-0.9l9.9-24.2c0.2-0.5,0.8-0.9,1.4-0.9h36.1c0.5,0,0.8,0.4,0.6,0.9
			l-9.9,24.2C350.3,107.8,349.8,108.2,349.2,108.2z"/>
		<path class="st8" d="M338.9,84.1l-2,4.9c-0.2,0.5-0.8,0.9-1.4,0.9h-15.8c-0.6,0-0.9-0.4-0.7-0.9l2-4.9c0.2-0.5,0.8-0.9,1.4-0.9
			h15.8C338.8,83.2,339.1,83.6,338.9,84.1z"/>
		<path class="st8" d="M359.2,84.1l-2,4.9c-0.2,0.5-0.8,0.9-1.4,0.9H340c-0.6,0-0.9-0.4-0.7-0.9l2-4.9c0.2-0.5,0.8-0.9,1.4-0.9h15.8
			C359.1,83.2,359.4,83.6,359.2,84.1z"/>
		<path class="st8" d="M335.4,92.8l-2,4.9c-0.2,0.5-0.8,0.9-1.4,0.9h-15.8c-0.6,0-0.9-0.4-0.7-0.9l2-4.9c0.2-0.5,0.8-0.9,1.4-0.9
			h15.8C335.2,91.9,335.5,92.3,335.4,92.8z"/>
		<path class="st8" d="M355.6,92.8l-2,4.9c-0.2,0.5-0.8,0.9-1.4,0.9h-15.8c-0.6,0-0.9-0.4-0.7-0.9l2-4.9c0.2-0.5,0.8-0.9,1.4-0.9
			h15.8C355.5,91.9,355.8,92.3,355.6,92.8z"/>
		<path class="st8" d="M331.8,101.6l-2,4.9c-0.2,0.5-0.8,0.9-1.4,0.9h-15.8c-0.6,0-0.9-0.4-0.7-0.9l2-4.9c0.2-0.5,0.8-0.9,1.4-0.9
			h15.8C331.7,100.7,332,101.1,331.8,101.6z"/>
		<path class="st8" d="M348.6,107.4h-15.8c-0.6,0-0.9-0.4-0.7-0.9l2-4.9c0.2-0.5,0.8-0.9,1.4-0.9h15.8c0.6,0,0.9,0.4,0.7,0.9l-2,4.9
			C349.8,107,349.2,107.4,348.6,107.4z"/>
		<g class="st9">
			<path class="st6" d="M318.9,91.9h4.4l-7.4,4.7l1.6-3.8C317.7,92.3,318.3,91.9,318.9,91.9L318.9,91.9z"/>
		</g>
		<g class="st9">
			<path class="st6" d="M322.5,83.2H337l-10.5,6.7h-6.7c-0.6,0-0.9-0.4-0.7-0.9l2-4.9C321.3,83.6,321.9,83.2,322.5,83.2L322.5,83.2z
				"/>
		</g>
		<g class="st9">
			<path class="st6" d="M319.2,100.7h9.2l-10.5,6.7h-5.3c-0.6,0-0.9-0.4-0.7-0.9l0.7-1.6L319.2,100.7z"/>
		</g>
		<g class="st9">
			<path class="st6" d="M335.4,92.8l-1.9,4.6l-1.9,1.2h-9.2l10.5-6.7h1.8C335.3,91.9,335.6,92.3,335.4,92.8L335.4,92.8z"/>
		</g>
		<g class="st9">
			<path class="st6" d="M339.1,91.9h2.9l-5.4,3.4l1-2.5C337.9,92.3,338.6,91.9,339.1,91.9L339.1,91.9z"/>
		</g>
		<g class="st9">
			<path class="st6" d="M346.5,83.2h9.2l-10.5,6.7H340c-0.6,0-0.9-0.4-0.7-0.9l0.7-1.6L346.5,83.2z"/>
		</g>
	</g>
</g>
<g>
	<path class="st6" d="M412.8,85.5v32c0,1.5-1.2,2.8-2.8,2.8s-2.8-1.2-2.8-2.8v-32c0-1.5,1.2-2.8,2.8-2.8S412.8,84,412.8,85.5z"/>
	<rect x="407.2" y="102.1" class="st7" width="5.5" height="4.2"/>
	<path class="st6" d="M410,108c-2.4,0-4.3,1.9-4.3,4.3v11.4h8.6v-11.4C414.3,109.9,412.4,108,410,108z"/>
	<g>
		<path class="st7" d="M430.1,103.7h-53.2c-0.8,0-1.2-0.6-1-1.3l14.6-35.7c0.3-0.7,1.2-1.3,2-1.3h53.2c0.8,0,1.2,0.6,1,1.3
			l-14.6,35.7C431.8,103.2,430.9,103.7,430.1,103.7z"/>
		<path class="st6" d="M429.3,103.2h-53.2c-0.8,0-1.2-0.6-1-1.3l14.6-35.7c0.3-0.7,1.2-1.3,2-1.3h53.2c0.8,0,1.2,0.6,1,1.3
			l-14.6,35.7C431,102.6,430.1,103.2,429.3,103.2z"/>
		<path class="st8" d="M414.2,67.7l-3,7.2c-0.3,0.7-1.2,1.3-2.1,1.3h-23.2c-0.8,0-1.3-0.6-1-1.3l3-7.2c0.3-0.7,1.2-1.3,2.1-1.3h23.2
			C414,66.4,414.5,67,414.2,67.7z"/>
		<path class="st8" d="M444,67.7l-3,7.2c-0.3,0.7-1.2,1.3-2.1,1.3h-23.2c-0.9,0-1.3-0.6-1-1.3l3-7.2c0.3-0.7,1.2-1.3,2.1-1.3H443
			C443.9,66.4,444.3,67,444,67.7z"/>
		<path class="st8" d="M408.9,80.6l-3,7.2c-0.3,0.7-1.2,1.3-2.1,1.3h-23.2c-0.8,0-1.3-0.6-1-1.3l3-7.2c0.3-0.7,1.2-1.3,2.1-1.3h23.2
			C408.7,79.3,409.2,79.8,408.9,80.6z"/>
		<path class="st8" d="M438.7,80.6l-3,7.2c-0.3,0.7-1.2,1.3-2.1,1.3h-23.2c-0.9,0-1.3-0.6-1-1.3l3-7.2c0.3-0.7,1.2-1.3,2.1-1.3h23.2
			C438.6,79.3,439,79.8,438.7,80.6z"/>
		<path class="st8" d="M403.6,93.5l-3,7.2c-0.3,0.7-1.2,1.3-2.1,1.3h-23.2c-0.8,0-1.3-0.6-1-1.3l3-7.2c0.3-0.7,1.2-1.3,2.1-1.3h23.2
			C403.5,92.2,403.9,92.8,403.6,93.5z"/>
		<path class="st8" d="M428.4,102.1h-23.2c-0.9,0-1.3-0.6-1-1.3l3-7.2c0.3-0.7,1.2-1.3,2.1-1.3h23.2c0.9,0,1.3,0.6,1,1.3l-3,7.2
			C430.2,101.5,429.2,102.1,428.4,102.1z"/>
		<g class="st9">
			<path class="st6" d="M384.6,79.3h6.5l-10.8,6.9l2.3-5.6C382.9,79.9,383.8,79.3,384.6,79.3L384.6,79.3z"/>
		</g>
		<g class="st9">
			<path class="st6" d="M389.9,66.4h21.4l-15.5,9.9h-9.9c-0.8,0-1.3-0.6-1-1.3l3-7.2C388.2,67,389.1,66.4,389.9,66.4L389.9,66.4z"/>
		</g>
		<g class="st9">
			<path class="st6" d="M385,92.2h13.6l-15.5,9.9h-7.8c-0.8,0-1.3-0.6-1-1.3l1-2.4L385,92.2z"/>
		</g>
		<g class="st9">
			<path class="st6" d="M408.9,80.6l-2.8,6.8l-2.8,1.8h-13.6l15.5-9.9h2.7C408.7,79.3,409.2,79.8,408.9,80.6z"/>
		</g>
		<g class="st9">
			<path class="st6" d="M414.5,79.3h4.3l-7.9,5.1l1.5-3.7C412.7,79.9,413.6,79.3,414.5,79.3L414.5,79.3z"/>
		</g>
		<g class="st9">
			<path class="st6" d="M425.4,66.4h13.6l-15.5,9.9h-7.8c-0.9,0-1.3-0.6-1-1.3l1-2.4L425.4,66.4L425.4,66.4z"/>
		</g>
	</g>
</g>
</svg>
